<?xml version="1.0" encoding="utf-8"?>
<!-- Svg Vector Icons : http://www.onlinewebfonts.com/icon -->
<!DOCTYPE svg PUBLIC "-//W3C//DTD SVG 1.1//EN" "http://www.w3.org/Graphics/SVG/1.1/DTD/svg11.dtd">
<svg version="1.1" xmlns="http://www.w3.org/2000/svg" xmlns:xlink="http://www.w3.org/1999/xlink" x="0px" y="0px" viewBox="0 0 256 256" enable-background="new 0 0 256 256" xml:space="preserve" width="50px" height="50px">
<metadata>  </metadata>
<g><g><path fill="rgb(7, 204, 236)" d="M105.7,88.5c5.3,0,9.8,3.4,11.3,8.2h17c1.6-4.7,6.1-8.2,11.3-8.2c5.2,0,9.6,3.3,11.2,7.9l0,0l19.3-8.1c-0.2-1.9-0.4-3.7-0.8-5.2c-0.6-1.8-1.3-3.2-2.1-3.9c-5.6-4.8-52.7-14.4-61.7-30.6c-8.8,14.9-19.9,21.1-27.4,25.2c-2.1,1.2-4.9,6.6-5.8,14.5l16.6,7.9C96.3,91.7,100.7,88.5,105.7,88.5L105.7,88.5z M157.1,102.5L157.1,102.5c-1,5.6-5.9,9.9-11.8,9.9c-5.9,0-10.8-4.3-11.8-9.9l0,0h-16.1l0,0c-1,5.6-5.9,9.9-11.8,9.9c-6,0-11-4.4-11.8-10.2l-16.3-7.7c0,5.8,1.1,12.4,3.9,19.4c7.8,17.7,21.7,33.2,46,33.2c22.1,0,35.6-12.8,43.7-28.5v0c0.4-0.7,0.7-1.5,1.1-2.2c2.3-5.5,3.7-14.3,3.9-22L157.1,102.5L157.1,102.5z M128,181.2l-33.3-37.6C97.1,160.5,112.6,181.1,128,181.2L128,181.2z M174.6,27.7c-19.2-22.6-53.3-19.3-67.4-6.5c-2.2,2-18.6-0.3-25.9,6.8C74,35.1,64.7,47.8,64.7,69.3s11,35.1,11,35.1s-0.2-1.5-0.5-3.9c-0.7-6.1-1.6-17.7,0.5-23c2.9-5.9,22-8.2,35.5-31.1c9,16.1,56.1,25.8,61.7,30.6c4.6,3.9,4.5,25.5,5.2,29.8c0.2,1,0.4,1.1,0.7-0.2c1.9-6.9,11.5-20.5,11.8-28.2C191,70.8,193.8,50.4,174.6,27.7L174.6,27.7z M161.3,143.5L128,181.2C143.3,181.1,158.8,160.5,161.3,143.5L161.3,143.5z M169.5,145.7c-3.2,19.2-19.3,40.5-37.2,43.5c0,0-0.1,0-0.1,0c-1.1,29.3-15.1,46.7-37.8,46.7c-20.5,0-28.2-13.4-29.3-20.4c0-0.4,0-0.7,0-1c-12-2-21.2-12.4-21.2-24.9c0-14,11.3-25.3,25.3-25.3c14,0,25.3,11.3,25.3,25.3c0,12.5-9.1,22.9-21.1,24.9c0.5,2.2,3.8,13.1,20.9,13.1c24.2,0,28.8-24.3,29.4-38.3c-17.9-3-34-24.3-37.2-43.5C50.7,156.1,10,180.2,10,227.5v4.7c0,7,5.7,12.6,12.6,12.6h106.2h104.6c7,0,12.6-5.7,12.6-12.6v-4.7C246,180.2,205.3,156.1,169.5,145.7L169.5,145.7z M69.2,172.7c-9.3,0-16.9,7.5-16.9,16.9c0,9.3,7.6,16.9,16.9,16.9c9.3,0,16.9-7.5,16.9-16.9C86.1,180.2,78.5,172.7,69.2,172.7L69.2,172.7z M69.2,201.9c-7,0-12.6-5.7-12.6-12.6s5.7-12.6,12.6-12.6s12.6,5.7,12.6,12.6C81.9,196.2,76.2,201.9,69.2,201.9L69.2,201.9z M69.2,180.8c-4.6,0-8.4,3.8-8.4,8.4c0,4.6,3.8,8.4,8.4,8.4s8.4-3.8,8.4-8.4C77.6,184.6,73.9,180.8,69.2,180.8L69.2,180.8z"/></g></g>
</svg>