<?xml version="1.0" encoding="utf-8"?>
<!-- Svg Vector Icons : http://www.onlinewebfonts.com/icon -->
<!DOCTYPE svg PUBLIC "-//W3C//DTD SVG 1.1//EN" "http://www.w3.org/Graphics/SVG/1.1/DTD/svg11.dtd">
<svg version="1.1" xmlns="http://www.w3.org/2000/svg" xmlns:xlink="http://www.w3.org/1999/xlink" x="0px" y="0px" viewBox="0 0 256 256" enable-background="new 0 0 256 256" xml:space="preserve" width="50px" height="50px">
<metadata> Svg Vector Icons : http://www.onlinewebfonts.com/icon </metadata>
<g><g><path fill=" rgb(7, 204, 236)" d="M19,20.1c-0.4-0.7-0.1-1.7,0.6-2.1l11.2-6.1c0.7-0.4,1.7-0.1,2.1,0.6l4.6,8.2c17.1-5.1,36,2.2,44.8,18.4L60.5,51.1c3.6,6.6,1.2,14.9-5.4,18.5c-6.6,3.6-14.9,1.2-18.5-5.4L14.7,76C5.8,59.8,9.9,40,23.5,28.4L19,20.1L19,20.1z"/><path fill=" rgb(7, 204, 236)" d="M172.6,168.4H246v75.8h-73.4V168.4z"/><path fill=" rgb(7, 204, 236)" d="M164.2,206.4h-59.3c-10.3,0-18.7-8.4-18.7-18.7c0-10.4,8.4-18.7,18.7-18.7h59.3V206.4L164.2,206.4z"/><path fill=" rgb(7, 204, 236)" d="M36.4,221.5c0-4.2,3.4-7.6,7.6-7.6h120.2v30.3H36.4V221.5L36.4,221.5z"/><path fill=" rgb(7, 204, 236)" d="M82,183.7c0,12.5-10.1,22.6-22.6,22.6c-12.5,0-22.6-10.1-22.6-22.6c0-12.5,10.1-22.6,22.6-22.6C71.9,161.2,82,171.3,82,183.7z"/><path fill=" rgb(7, 204, 236)" d="M205.7,120.4L193,84.2c-2.5-6.8-7.2-12.2-20.6-12.2h-58.8c-13.4,0-18.1,5.3-20.6,12.2l-12.7,36.3c-0.9,2.3-1.4,7.6,3.7,11.1l29.9,19.7c4.4,2.9,10.3,1.7,13.1-2.7c2.9-4.4,1.7-10.3-2.7-13.1l-23.8-15.7l6.7-18.4h9.2l-5.4,15l18,11.9c4,2.7,6.8,6.8,7.8,11.5c1,4.8,0,9.6-2.6,13.7c-1.1,1.6-2.4,3-3.9,4.2h25c-1.5-1.2-2.8-2.6-3.9-4.2c-2.7-4-3.6-8.9-2.6-13.7c1-4.7,3.8-8.8,7.8-11.5l18.1-11.9l-5.4-15h9.3l6.7,18.4l-23.8,15.7c-4.4,2.9-5.6,8.8-2.7,13.1s8.8,5.6,13.1,2.7l29.9-19.7C207.2,128,206.7,122.8,205.7,120.4L205.7,120.4z"/><path fill=" rgb(7, 204, 236)" d="M148.9,36.5c-1.4,3.1-4.5,5.2-8.1,5.2c-3.6,0-6.7-2.1-8.1-5.2h-16.4c-0.3,1.4-0.4,2.9-0.4,4.4c0,13.8,11.2,25,25,25c13.8,0,25-11.2,25-25c0-1.5-0.2-3-0.4-4.4H148.9L148.9,36.5z"/><path fill=" rgb(7, 204, 236)" d="M132,30.6c1-3.9,4.5-6.8,8.7-6.8c4.2,0,7.7,2.9,8.7,6.8h14.2c-3.9-8.6-12.7-14.7-22.8-14.7c-10.1,0-18.9,6-22.8,14.7H132L132,30.6z"/></g></g>
</svg>