<svg xmlns="http://www.w3.org/2000/svg" version="1.1" xmlns:xlink="http://www.w3.org/1999/xlink" xmlns:svgjs="http://svgjs.dev/svgjs" width="1500" height="378" viewBox="0 0 1500 378"><g transform="matrix(1,0,0,1,-0.9090909090909918,0.8727657989129511)"><svg viewBox="0 0 396 100" data-background-color="#ffffff" preserveAspectRatio="xMidYMid meet" height="378" width="1500" xmlns="http://www.w3.org/2000/svg" xmlns:xlink="http://www.w3.org/1999/xlink"><g id="tight-bounds" transform="matrix(1,0,0,1,0.2400000000000091,-0.23089042299284301)"><svg viewBox="0 0 395.52 100.4617808459857" height="100.4617808459857" width="395.52"><g><svg viewBox="0 0 603.0637161190316 153.17772776323798" height="100.4617808459857" width="395.52"><g><rect width="9.221885813551758" height="153.17772776323798" x="174.18076796633912" y="0" fill="#00ebff" opacity="1" stroke-width="0" stroke="transparent" fill-opacity="1" class="rect-qz-0" data-fill-palette-color="primary" rx="1%" id="qz-0" data-palette-color="#00ebff"></rect></g><g transform="matrix(1,0,0,1,207.5437161190316,0.3810391237891366)"><svg viewBox="0 0 395.52 152.4156495156597" height="152.4156495156597" width="395.52"><g id="textblocktransform"><svg viewBox="0 0 395.52 152.4156495156597" height="152.4156495156597" width="395.52" id="textblock"><g><svg viewBox="0 0 395.52 102.2597059385144" height="102.2597059385144" width="395.52"><g transform="matrix(1,0,0,1,0,0)"><svg width="395.52" viewBox="3.61 -32.81 127.83999999999999 33.050000000000004" height="102.2597059385144" data-palette-color="#00ebff"><path d="M15.45 0.24Q11.67 0.24 9.01-0.94 6.35-2.12 4.98-4.37 3.61-6.62 3.61-9.74L3.61-9.74 3.61-29.52Q3.61-30.49 5.35-30.49L5.35-30.49 5.69-30.49Q7.42-30.49 7.42-29.52L7.42-29.52 7.42-9.59Q7.42-7.69 8.47-6.2 9.52-4.71 11.35-3.88 13.18-3.05 15.45-3.05L15.45-3.05Q17.75-3.05 19.58-3.89 21.41-4.74 22.45-6.23 23.49-7.71 23.49-9.59L23.49-9.59 23.49-29.52Q23.49-30.49 25.22-30.49L25.22-30.49 25.59-30.49Q27.29-30.49 27.29-29.52L27.29-29.52 27.29-9.74Q27.29-6.62 25.93-4.37 24.56-2.12 21.9-0.94 19.24 0.24 15.45 0.24L15.45 0.24ZM36.57 0.07Q35.64 0.07 35.23-0.16 34.81-0.39 34.81-0.88L34.81-0.88 34.81-16.11Q34.81-18.95 34.54-20.2 34.27-21.46 34.27-21.58L34.27-21.58Q34.27-22.12 35.09-22.35 35.91-22.58 36.64-22.58L36.64-22.58Q37.23-22.58 37.52-21.96 37.81-21.34 38.03-20.21L38.03-20.21 38.16-19.7Q40.48-22.95 43.19-22.95L43.19-22.95Q44.43-22.95 45.07-22.5 45.7-22.05 45.7-21.29L45.7-21.29Q45.7-20.56 45.44-19.74 45.19-18.92 44.85-18.92L44.85-18.92Q44.68-18.92 44.24-19.07L44.24-19.07Q43.85-19.24 43.45-19.32 43.06-19.41 42.45-19.41L42.45-19.41Q41.45-19.41 40.56-18.82 39.67-18.24 39.06-17.53 38.45-16.82 38.45-16.75L38.45-16.75 38.45-0.88Q38.45-0.39 38.03-0.16 37.62 0.07 36.74 0.07L36.74 0.07 36.57 0.07ZM59.22 0.24Q54.32 0.24 51.74-2.7 49.16-5.64 49.16-11.25L49.16-11.25Q49.16-16.87 51.78-19.91 54.39-22.95 59.22-22.95L59.22-22.95Q64.01-22.95 66.55-19.93 69.09-16.92 69.09-11.25L69.09-11.25Q69.09-5.62 66.58-2.69 64.08 0.24 59.22 0.24L59.22 0.24ZM59.1-2.88Q62.28-2.88 63.79-4.94 65.3-7.01 65.3-11.33L65.3-11.33Q65.3-15.67 63.79-17.75 62.28-19.82 59.1-19.82L59.1-19.82Q55.95-19.82 54.46-17.76 52.97-15.7 52.97-11.33L52.97-11.33Q52.97-6.98 54.45-4.93 55.93-2.88 59.1-2.88L59.1-2.88ZM80.63 0.24Q78.46 0.24 76.75-1.07 75.04-2.39 75.04-5.74L75.04-5.74 75.04-31.69Q75.04-32.64 76.77-32.64L76.77-32.64 76.97-32.64Q78.68-32.64 78.68-31.69L78.68-31.69 78.68-6.08Q78.68-4.3 79.31-3.59 79.95-2.88 81.02-2.88L81.02-2.88Q81.83-2.88 82.29-2.98 82.76-3.08 82.9-3.08L82.9-3.08Q83.29-3.08 83.55-2.29 83.81-1.51 83.81-1.05L83.81-1.05Q83.81 0.24 80.63 0.24L80.63 0.24ZM89.91-28.17Q88.17-28.17 88.17-29.13L88.17-29.13 88.17-31.69Q88.17-32.64 89.91-32.64L89.91-32.64 90.42-32.64Q92.18-32.64 92.18-31.69L92.18-31.69 92.18-29.13Q92.18-28.17 90.42-28.17L90.42-28.17 89.91-28.17ZM90.08 0.07Q88.34 0.07 88.34-0.88L88.34-0.88 88.34-21.83Q88.34-22.78 90.08-22.78L90.08-22.78 90.25-22.78Q92.01-22.78 92.01-21.83L92.01-21.83 92.01-0.88Q92.01 0.07 90.25 0.07L90.25 0.07 90.08 0.07ZM102.31 0.07Q101.4 0.07 100.99-0.16 100.57-0.39 100.57-0.88L100.57-0.88 100.57-19.58 98.84-19.58Q97.96-19.58 97.96-20.87L97.96-20.87 97.96-21.41Q97.96-22.71 98.84-22.71L98.84-22.71 100.57-22.71 100.57-26.83Q100.57-30.25 102.27-31.53 103.97-32.81 106.16-32.81L106.16-32.81Q109.34-32.81 109.34-31.49L109.34-31.49Q109.34-31.27 109.23-30.77 109.12-30.27 108.91-29.88 108.7-29.49 108.43-29.49L108.43-29.49Q108.29-29.49 107.82-29.59 107.36-29.69 106.55-29.69L106.55-29.69Q105.82-29.69 105.32-29.47 104.82-29.25 104.52-28.54 104.21-27.83 104.21-26.49L104.21-26.49 104.21-22.71 108-22.71Q108.46-22.71 108.67-22.4 108.87-22.09 108.87-21.41L108.87-21.41 108.87-20.87Q108.87-20.19 108.67-19.89 108.46-19.58 108-19.58L108-19.58 104.21-19.58 104.21-0.88Q104.21-0.39 103.8-0.16 103.38 0.07 102.5 0.07L102.5 0.07 102.31 0.07ZM123.03 0.24Q117.64 0.24 115.01-2.58 112.39-5.4 112.39-11.21L112.39-11.21Q112.39-16.97 114.95-19.96 117.51-22.95 122.49-22.95L122.49-22.95Q126.94-22.95 129.2-20.07 131.45-17.19 131.45-11.62L131.45-11.62Q131.45-11.38 131.2-10.95 130.94-10.52 130.59-10.19 130.23-9.86 129.99-9.86L129.99-9.86 116.29-9.86Q116.56-6.23 118.16-4.55 119.76-2.88 122.98-2.88L122.98-2.88Q124.79-2.88 126.1-3.32 127.4-3.76 128.62-4.39L128.62-4.39Q128.74-4.44 128.99-4.57 129.23-4.69 129.33-4.69L129.33-4.69Q129.6-4.69 129.95-4.26 130.31-3.83 130.56-3.31 130.82-2.78 130.82-2.54L130.82-2.54Q130.82-2 129.75-1.34 128.67-0.68 126.88-0.22 125.08 0.24 123.03 0.24L123.03 0.24ZM116.29-12.99L127.57-12.99Q127.57-19.82 122.37-19.82L122.37-19.82Q116.78-19.82 116.29-12.99L116.29-12.99Z" opacity="1" transform="matrix(1,0,0,1,0,0)" fill="#00ebff" class="wordmark-text-0" data-fill-palette-color="primary" id="text-0"></path></svg></g></svg></g><g transform="matrix(1,0,0,1,0,126.40076827765513)"><svg viewBox="0 0 232.209792 26.01488123800459" height="26.01488123800459" width="232.209792"><g transform="matrix(1,0,0,1,0,0)"><svg width="232.209792" viewBox="0.12 -38.16 436.01 48.849999999999994" height="26.01488123800459" data-palette-color="#00ebff"><path d="M9.69-22.71L15.77-22.71Q15.58-22 15.58-19.14L15.58-19.14 15.58-16.99 9.69-16.99 9.69 0 3.71 0 3.71-16.99 0.12-16.99Q0.15-18.6 0.17-19.85L0.17-19.85 0.22-22.46 0.22-22.71 3.71-22.71 3.71-24.22Q3.71-30.08 6.45-33.64L6.45-33.64Q9.3-37.33 14.31-37.33L14.31-37.33Q16.43-37.33 17.11-37.04L17.11-37.04 17.14-30.91 17.09-30.79Q16.16-31.71 14.73-31.71 13.31-31.71 12.43-31.24 11.55-30.76 10.94-29.88L10.94-29.88Q9.69-28.13 9.69-25.07L9.69-25.07 9.69-22.71ZM37.13-1.51L37.13-1.51Q33.66 0.37 30.86 0.37 28.05 0.37 26.05-0.16 24.05-0.68 22.65-1.71L22.65-1.71Q19.82-3.78 19.82-7.71L19.82-7.71Q19.82-11.23 23.29-13.57L23.29-13.57Q27.05-16.11 33.49-16.11L33.49-16.11 34.47-16.09Q34.76-16.06 35.13-16.05 35.5-16.04 35.79-15.99L35.79-15.99Q35.59-19.9 32.42-20.56L32.42-20.56Q31.37-20.78 30.19-20.78 29-20.78 27.87-20.57 26.73-20.36 25.66-20.02L25.66-20.02Q23.29-19.26 22.26-18.29L22.26-18.29 22.19-18.33 21.46-23.73Q25.78-26 30.91-26L30.91-26Q38.86-26 41.09-20.26L41.09-20.26Q41.79-18.43 41.79-16.14L41.79-16.14 41.79-7.3Q41.79-4.47 43.8-3.44L43.8-3.44 39.38 0.61Q37.99-0.12 37.13-1.51ZM35.81-6.49L35.81-11.6Q35.15-11.72 34.45-11.72L34.45-11.72 33.47-11.72Q28.07-11.72 26.61-9.33L26.61-9.33Q26.17-8.62 26.17-7.84 26.17-7.06 26.45-6.46 26.73-5.86 27.39-5.47L27.39-5.47Q28.66-4.74 31.16-4.74 33.66-4.74 35.84-5.93L35.84-5.93Q35.81-6.2 35.81-6.49L35.81-6.49ZM56-17.16L56-7.06Q56-1.56 56.2 0L56.2 0 49.82 0 49.82-25.51 56-25.51 56-23.32Q59.35-26 62.86-26L62.86-26Q67.01-26 68.89-22.41L68.89-22.41Q70.77-24.34 72.02-24.95L72.02-24.95Q74.09-26 76.18-26 78.27-26 79.73-25.29 81.2-24.58 82.15-23.29L82.15-23.29Q84.08-20.68 84.08-16.11L84.08-16.11 84.08-6.4Q84.08-2.27 84.2-1.44 84.32-0.61 84.53-0.37 84.74-0.12 84.88 0.07L84.88 0.07 84.83 0.17Q82.88 0 81.95 0L81.95 0 80.12 0Q79.22 0 77.9 0.07L77.9 0.07 77.9-13.13Q77.9-18.85 76.14-19.92L76.14-19.92Q75.56-20.26 74.76-20.26 73.97-20.26 73.36-20.08 72.75-19.9 72.21-19.48L72.21-19.48Q71.31-18.82 70.16-16.89L70.16-16.89Q70.19-16.7 70.19-16.5 70.19-16.31 70.19-10.06 70.19-3.81 70.48 0L70.48 0Q68.4 0 66.95 0 65.5 0 64.18 0.07L64.18 0.07 64.18-13.16Q64.18-17.14 63.7-18.33 63.23-19.53 62.69-19.9 62.15-20.26 61.37-20.26L61.37-20.26Q58.15-20.26 56-17.16L56-17.16ZM95.87-28.83L90.37-32.79Q92.33-35.84 94.45-38.16L94.45-38.16 99.7-34.03Q98.65-32.74 97.75-31.49L97.75-31.49Q97.75-31.49 95.87-28.83L95.87-28.83ZM96.79-25.51L96.79-2.73Q96.79-0.63 96.89 0L96.89 0 90.69 0 90.69-25.51 96.79-25.51ZM109.34-36.38L109.34-2.73Q109.34-0.63 109.44 0L109.44 0 103.24 0 103.24-36.38 109.34-36.38ZM120.15 10.69L113.85 8.5 115.47 7.2Q119.1 4.25 121.5-1.51L121.5-1.51 122.62-4.22 113.27-25.51 120.1-25.51 125.96-10.77 131.41-25.51 138.44-25.51Q137.17-23.75 135.34-18.97L135.34-18.97 131.68-9.91Q124.33 7.37 120.15 10.69L120.15 10.69ZM164.41-16.97L164.41-2.73Q164.41-0.63 164.51 0L164.51 0 158.43 0 158.43-34.91 164.41-34.91 164.41-23.61Q167.56-26 170.91-26L170.91-26Q175.01-26 177.5-23.29L177.5-23.29Q179.94-20.58 179.94-16.11L179.94-16.11 179.94-6.4Q179.94-2.27 180.06-1.44 180.18-0.61 180.39-0.37 180.6-0.12 180.74 0.07L180.74 0.07 180.7 0.17Q178.72 0 177.81 0L177.81 0 176.08 0Q175.28 0 173.96 0.07L173.96 0.07 173.96-14.06Q173.96-17.43 172.47-19.04L172.47-19.04Q171.34-20.26 169.42-20.26L169.42-20.26Q166.56-20.26 164.41-16.97L164.41-16.97ZM185.7-12.55L185.7-12.55Q185.7-15.41 186.67-17.85 187.65-20.29 189.43-22.12L189.43-22.12Q193.24-26 199.39-26L199.39-26Q204.59-26 207.74-22.56L207.74-22.56Q210.84-19.24 210.84-14.21L210.84-14.21Q210.84-12.28 210.55-11.57L210.55-11.57Q208.11-10.89 200.61-10.89L200.61-10.89 192.02-10.89Q192.66-8.28 194.98-6.82 197.29-5.37 201.01-5.37L201.01-5.37Q204.89-5.37 207.67-6.76L207.67-6.76Q208.4-7.13 208.77-7.45L208.77-7.45Q208.72-6.42 208.65-5.35L208.65-5.35 208.38-1.54Q206.52-0.27 202.37 0.22L202.37 0.22Q201.15 0.37 200.03 0.37L200.03 0.37Q193.83 0.37 189.77-3.25L189.77-3.25Q185.7-6.88 185.7-12.55ZM204.35-15.63L204.35-15.63Q203.35-20.87 198.64-20.87L198.64-20.87Q194.93-20.87 193-17.68L193-17.68Q192.41-16.7 192.09-15.53L192.09-15.53Q192.68-15.5 193.53-15.48L193.53-15.48 195.34-15.48Q196.24-15.45 197.07-15.45L197.07-15.45 198.47-15.45Q199.71-15.45 200.91-15.48L200.91-15.48 202.91-15.55Q203.72-15.58 204.35-15.63ZM232.99-1.51L232.99-1.51Q229.52 0.37 226.71 0.37 223.9 0.37 221.9-0.16 219.9-0.68 218.51-1.71L218.51-1.71Q215.68-3.78 215.68-7.71L215.68-7.71Q215.68-11.23 219.14-13.57L219.14-13.57Q222.9-16.11 229.35-16.11L229.35-16.11 230.32-16.09Q230.62-16.06 230.98-16.05 231.35-16.04 231.64-15.99L231.64-15.99Q231.45-19.9 228.27-20.56L228.27-20.56Q227.22-20.78 226.04-20.78 224.86-20.78 223.72-20.57 222.58-20.36 221.51-20.02L221.51-20.02Q219.14-19.26 218.12-18.29L218.12-18.29 218.04-18.33 217.31-23.73Q221.63-26 226.76-26L226.76-26Q234.72-26 236.94-20.26L236.94-20.26Q237.65-18.43 237.65-16.14L237.65-16.14 237.65-7.3Q237.65-4.47 239.65-3.44L239.65-3.44 235.23 0.61Q233.84-0.12 232.99-1.51ZM231.67-6.49L231.67-11.6Q231.01-11.72 230.3-11.72L230.3-11.72 229.32-11.72Q223.93-11.72 222.46-9.33L222.46-9.33Q222.02-8.62 222.02-7.84 222.02-7.06 222.3-6.46 222.58-5.86 223.24-5.47L223.24-5.47Q224.51-4.74 227.02-4.74 229.52-4.74 231.69-5.93L231.69-5.93Q231.67-6.2 231.67-6.49L231.67-6.49ZM250.93-36.38L250.93-2.73Q250.93-0.63 251.02 0L251.02 0 244.82 0 244.82-36.38 250.93-36.38ZM269.11-5.37L269.11-5.37Q272.26-5.37 273.43-7.01L273.43-7.01 273.63-7.01 273.7-1.34Q272.51-0.15 269.26 0.24L269.26 0.24Q268.38 0.37 267.07 0.37 265.77 0.37 264.24-0.12 262.72-0.61 261.64-1.71L261.64-1.71Q259.42-3.98 259.42-8.81L259.42-8.81 259.42-19.9 255.73-19.9Q255.71-20.61 255.71-21.34L255.71-21.34 255.71-25.1Q255.71-25.51 255.73-25.51L255.73-25.51 259.42-25.51 259.42-32.47 265.4-32.47 265.4-25.51 272.12-25.51 272.12-19.9 265.4-19.9 265.4-9.94Q265.4-6.1 267.53-5.57L267.53-5.57Q268.21-5.37 269.11-5.37ZM285.27-16.97L285.27-2.73Q285.27-0.63 285.37 0L285.37 0 279.29 0 279.29-34.91 285.27-34.91 285.27-23.61Q288.42-26 291.77-26L291.77-26Q295.87-26 298.36-23.29L298.36-23.29Q300.8-20.58 300.8-16.11L300.8-16.11 300.8-6.4Q300.8-2.27 300.92-1.44 301.04-0.61 301.25-0.37 301.46-0.12 301.61 0.07L301.61 0.07 301.56 0.17Q299.58 0 298.68 0L298.68 0 296.94 0Q296.14 0 294.82 0.07L294.82 0.07 294.82-14.06Q294.82-17.43 293.33-19.04L293.33-19.04Q292.21-20.26 290.28-20.26L290.28-20.26Q287.42-20.26 285.27-16.97L285.27-16.97ZM343.74-8.33L344.3-2.37Q341.57 0.37 335.73 0.37L335.73 0.37Q330.07 0.37 326.48-3.08L326.48-3.08Q322.84-6.57 322.84-12.35L322.84-12.35Q322.84-18.24 326.43-22.02L326.43-22.02Q330.24-26 336.61-26L336.61-26Q341.13-26 344.18-24.02L344.18-24.02 343.2-17.77 343.03-17.8Q341.86-19.21 340.57-19.65L340.57-19.65Q338.47-20.39 336.37-20.39 334.27-20.39 333.07-19.85 331.87-19.31 331.02-18.36L331.02-18.36Q329.31-16.41 329.31-13.18L329.31-13.18Q329.31-7.47 333.27-5.71L333.27-5.71Q334.63-5.13 336.16-5.13 337.68-5.13 338.82-5.4 339.96-5.66 340.88-6.13L340.88-6.13Q342.86-7.1 343.57-8.4L343.57-8.4 343.74-8.33ZM355.07-36.38L355.07-2.73Q355.07-0.63 355.16 0L355.16 0 348.96 0 348.96-36.38 355.07-36.38ZM366.63-28.83L361.14-32.79Q363.09-35.84 365.22-38.16L365.22-38.16 370.47-34.03Q369.42-32.74 368.51-31.49L368.51-31.49Q368.51-31.49 366.63-28.83L366.63-28.83ZM367.56-25.51L367.56-2.73Q367.56-0.63 367.66 0L367.66 0 361.46 0 361.46-25.51 367.56-25.51ZM380.87-17.07L380.87-3.13Q380.87-0.98 381.06 0L381.06 0 374.93 0 374.93-25.51 380.87-25.51 380.87-23.34Q384.09-26 387.75-26L387.75-26Q391.75-26 394.15-23.28 396.54-20.56 396.54-16.11L396.54-16.11 396.54-6.4Q396.54-2.27 396.66-1.44 396.78-0.61 396.99-0.37 397.2-0.12 397.35 0.07L397.35 0.07 397.3 0.17Q395.32 0 394.42 0L394.42 0 392.71 0Q391.93 0 390.61 0.07L390.61 0.07 390.61-13.23Q390.61-20.39 386.26-20.39L386.26-20.39Q383.04-20.39 380.87-17.07L380.87-17.07ZM408.38-28.83L402.88-32.79Q404.84-35.84 406.96-38.16L406.96-38.16 412.21-34.03Q411.16-32.74 410.26-31.49L410.26-31.49Q410.26-31.49 408.38-28.83L408.38-28.83ZM409.31-25.51L409.31-2.73Q409.31-0.63 409.4 0L409.4 0 403.2 0 403.2-25.51 409.31-25.51ZM435.57-8.33L436.13-2.37Q433.4 0.37 427.56 0.37L427.56 0.37Q421.9 0.37 418.31-3.08L418.31-3.08Q414.67-6.57 414.67-12.35L414.67-12.35Q414.67-18.24 418.26-22.02L418.26-22.02Q422.07-26 428.44-26L428.44-26Q432.96-26 436.01-24.02L436.01-24.02 435.04-17.77 434.86-17.8Q433.69-19.21 432.4-19.65L432.4-19.65Q430.3-20.39 428.2-20.39 426.1-20.39 424.9-19.85 423.71-19.31 422.85-18.36L422.85-18.36Q421.14-16.41 421.14-13.18L421.14-13.18Q421.14-7.47 425.1-5.71L425.1-5.71Q426.47-5.13 427.99-5.13 429.52-5.13 430.65-5.4 431.79-5.66 432.72-6.13L432.72-6.13Q434.69-7.1 435.4-8.4L435.4-8.4 435.57-8.33Z" opacity="1" transform="matrix(1,0,0,1,0,0)" fill="#00ebff" class="slogan-text-1" data-fill-palette-color="secondary" id="text-1"></path></svg></g></svg></g></svg></g></svg></g><g transform="matrix(1,0,0,1,0,0.3810391237891366)"><svg viewBox="0 0 150.0397056271984 152.4156495156597" height="152.4156495156597" width="150.0397056271984"><g><svg xmlns="http://www.w3.org/2000/svg" xmlns:xlink="http://www.w3.org/1999/xlink" version="1.1" x="0" y="0" viewBox="3.2 2.416615699682717 93.675 95.15838430031728" enable-background="new 0 0 100 100" xml:space="preserve" height="152.4156495156597" width="150.0397056271984" class="icon-icon-0" data-fill-palette-color="accent" id="icon-0"><path d="M37.6 84.9H3.2V73.8c0-2.3 1-4.6 2.8-6.1 7.9-6.5 16.2-11.2 20.6-13.5 0.5 1.1 5.3 12.3 8.2 16.4 0 0 2.9-10.3 7.7-7.5 0 0-9.7-7.5-12.8-11.3v-7.3c-1.2-2.1-2-4.2-2.3-6.2-0.9-0.1-2-1.3-3.2-5.6-1.5-5.5-0.1-6.6 1.3-6.7-0.1-0.5-0.2-0.9-0.3-1.4h0c-0.5-2.8-0.7-5.3 0-7.8 0.8-3.3 2.6-5.9 4.5-8 1.3-1.3 2.7-2.5 4.2-3.5 1.2-0.9 2.6-1.6 4.1-2.1l0 0c1.2-0.4 2.4-0.6 3.7-0.7 4.1-0.4 7.1 0.7 9.3 2 3.3 1.8 4.5 4.2 4.5 4.2s7.5 0.5 5 15.9c-0.1 0.5-0.2 0.9-0.3 1.4 1.4 0 2.9 1.1 1.3 6.7-1.2 4.3-2.4 5.5-3.2 5.6-0.3 2-1.1 4.1-2.3 6.2v7.3C52.8 55.5 43.2 63 43.2 63c4.8-2.7 7.7 7.5 7.7 7.5 2.9-4.1 7.7-15.3 8.2-16.4 2.3 1.2 5.8 3.2 9.8 5.7-7.3 3.7-12.3 11.3-12.3 20 0 1.8 0.2 3.5 0.6 5.1H48 37.6zM91.7 67.3c6.9 6.9 6.9 18.2 0 25.1-6.9 6.9-18.2 6.9-25.1 0-6.9-6.9-6.9-18.2 0-25.1C73.5 60.4 84.7 60.4 91.7 67.3zM87.1 78.5c0-1.2-0.5-2.4-1.3-3.2-0.9-0.9-2-1.3-3.2-1.3-1.2 0-2.4 0.5-3.2 1.3l-0.2 0.2-0.3-0.3c-0.9-0.9-2-1.3-3.2-1.3-1.2 0-2.4 0.5-3.2 1.3-0.9 0.9-1.3 2-1.3 3.2 0 1.2 0.5 2.4 1.3 3.2l6.2 6.2c0.1 0.1 0.3 0.2 0.5 0.2 0.2 0 0.4-0.1 0.5-0.2l6.2-6.2C86.6 80.9 87.1 79.7 87.1 78.5z" fill="#00ebff" data-fill-palette-color="accent"></path></svg></g></svg></g></svg></g><defs></defs></svg><rect width="395.52" height="100.4617808459857" fill="none" stroke="none" visibility="hidden"></rect></g></svg></g></svg>