<?xml version="1.0" encoding="utf-8"?>
<!-- Svg Vector Icons : http://www.onlinewebfonts.com/icon -->
<!DOCTYPE svg >
<svg version="1.1" xmlns="http://www.w3.org/2000/svg" xmlns:xlink="http://www.w3.org/1999/xlink" x="0px" y="0px" viewBox="0 0 256 256" enable-background="new 0 0 256 256" xml:space="preserve" width="50px" height="50px">
<metadata> </metadata> 
<g><g><g><path fill="rgb(7, 204, 236)" d="M16,10.9c-2.6,1.2-4.8,3.6-5.5,6.2C10,18.5,9.9,25.8,10,39.3l0.2,20.2l1.7,3.4c0.9,1.9,2.3,4.4,3,5.7c0.7,1.2,1.4,3.7,1.6,5.5c0.8,6.9,4.8,10.9,11,10.9h2.4v69.6c0,76.1-0.1,73.3,3,79c1.9,3.4,6.1,7.6,9.5,9.5c11.1,6,24.9,2.6,31.6-7.7c3.5-5.3,3.7-6.4,4.1-18.5c0.3-12.3,0.6-13.2,4-15.8l1.9-1.5l9.9-0.2l9.9-0.2v5.4c0,3,0.3,6.2,0.5,7.3c0.7,2.5,4.1,5.8,6.7,6.6c1.5,0.5,16.5,0.6,57.6,0.6c62.3,0,57.9,0.3,61.4-3.8c2.5-2.8,2.9-5.7,2.7-18.7c-0.2-13.5,0-12.9-6.3-18.5c-0.1-0.1-12.3-0.3-27.1-0.4l-27-0.3l-0.2-5.9l-0.2-5.9l33.2-0.2c36.5-0.2,34.6,0,37.7-3.4c3.3-3.5,3.1,0.3,3.1-57.7c0-50.3-0.1-53-1-55c-1.2-2.5-2.8-4.1-5.4-5.2c-1.7-0.7-9.9-0.8-71.4-0.8c-41.8,0-70,0.2-70.8,0.5c-1.8,0.7-5,3.6-6,5.5c-0.8,1.5-0.9,5.9-1,53.7c-0.1,34.3,0.1,52.8,0.4,54.1c0.8,3,2.7,5.4,5.2,6.9l2.4,1.3l32.9,0.2l32.9,0.2v6v6H138h-26.2l-2.3,1.2c-3.4,1.8-5.4,4.9-5.6,8.7l-0.2,3.1L93.7,191c-9,0.2-10.3,0.3-12.6,1.4c-3.9,1.8-6.8,4.4-8.8,8.1l-1.8,3.3l-0.3,11c-0.3,10-0.4,11.3-1.5,13.6c-2.7,6-8.1,9.4-14.8,9.4c-6.8,0-11.6-3.2-14.6-9.7l-1.4-2.9v-70v-70l2.9-0.3c6.2-0.7,9.7-4.3,10.5-11.1c0.4-2.8,0.9-4.5,2.2-6.5c4.5-7.1,4.6-8,4.6-30.4V18.5l-1.4-2.8c-0.9-1.8-2.2-3.3-3.5-4.1l-2.1-1.4l-16.6-0.1C19.4,9.9,17.9,10,16,10.9z M50.1,31.2c1.6,1.6,1.7,3.8,0.3,5.4c-1.1,1.2-1.3,1.2-16.4,1.2c-17.2,0-17.2,0-17.2-3.7c0-1.5,0.3-2.2,1.4-3c1.4-1,2-1.1,16.1-1.1h14.6L50.1,31.2z M237.2,52.2c0.9,0.8,0.9,3.1,0.9,51.9c0,34.3-0.2,51.5-0.5,52.1c-0.6,1-1.9,1-69.1,1c-52.7,0-68.8-0.2-69.2-0.6c-0.5-0.5-0.6-12.9-0.6-52.5c0-48.7,0.1-51.8,0.9-52.3c0.6-0.4,23.7-0.5,68.8-0.6C230.8,51.4,236.3,51.4,237.2,52.2z M217.1,191.7c2.8,1.4,2.8,5.4-0.1,6.8c-1.3,0.7-3.7,0.8-15.9,0.7c-13.3-0.2-14.5-0.2-15.5-1.2c-1.7-1.5-1.5-4.6,0.3-6c1.4-1,2-1.1,15.5-1.1C213.1,190.9,215.9,191,217.1,191.7z"/><path fill="#rgb(7, 204, 236)" d="M103.8,104.3v47.7h64.5h64.5l-0.1-47.6l-0.2-47.6l-64.4-0.2l-64.4-0.1V104.3L103.8,104.3z M161.8,74.4c4.2,3.9,8.6,3.9,13,0.1l2.3-2.1l19,19l19,19l-4,3.7c-9.4,8.8-21,14.5-33.5,16.4c-6.3,1-19,0.3-25.2-1.3c-9.9-2.6-21.1-9.1-28.1-16.3l-2.9-2.9l18.9-18.9c10.4-10.4,19-18.9,19.1-18.9S160.6,73.3,161.8,74.4z"/></g></g></g>
</svg>